<svg
  xmlns="http://www.w3.org/2000/svg"
  width="64"
  height="64"
  viewBox="0 0 64 64"
  fill="none"
>
  <defs>
    <linearGradient id="tile" x1="8" y1="7" x2="56" y2="57" gradientUnits="userSpaceOnUse">
      <stop stop-color="#F0DFC6" />
      <stop offset="1" stop-color="#CEA068" />
    </linearGradient>
    <linearGradient id="trunk" x1="18" y1="21" x2="46" y2="48" gradientUnits="userSpaceOnUse">
      <stop stop-color="#C88F4E" />
      <stop offset="1" stop-color="#8C572E" />
    </linearGradient>
  </defs>

  <rect x="4" y="4" width="56" height="56" rx="16" fill="url(#tile)" />
  <rect
    x="4.75"
    y="4.75"
    width="54.5"
    height="54.5"
    rx="15.25"
    stroke="#A57642"
    stroke-opacity="0.85"
    stroke-width="1.5"
  />

  <path
    d="M24 22.5C24 19.4624 26.4624 17 29.5 17H34.5C37.5376 17 40 19.4624 40 22.5V25H36.75V23C36.75 21.4812 35.5188 20.25 34 20.25H30C28.4812 20.25 27.25 21.4812 27.25 23V25H24V22.5Z"
    fill="#5A351C"
  />

  <rect x="17" y="24" width="30" height="25" rx="8" fill="url(#trunk)" />
  <rect x="17" y="24" width="30" height="25" rx="8" stroke="#5A351C" stroke-width="2.2" />

  <rect x="21" y="24" width="4.5" height="25" rx="2.25" fill="#5F3920" />
  <rect x="38.5" y="24" width="4.5" height="25" rx="2.25" fill="#5F3920" />
  <rect x="17" y="30" width="30" height="4" rx="2" fill="#E0B06B" fill-opacity="0.72" />

  <rect x="29" y="33" width="6" height="10" rx="3" fill="#E2AB50" />
  <rect x="30.5" y="35" width="3" height="4.5" rx="1.5" fill="#6A4023" fill-opacity="0.82" />

</svg>
