<svg
  xmlns="http://www.w3.org/2000/svg"
  width="64"
  height="64"
  viewBox="0 0 64 64"
  fill="none"
>
  <defs>
    <linearGradient id="bg" x1="8" y1="6" x2="56" y2="58" gradientUnits="userSpaceOnUse">
      <stop stop-color="#1D4ED8" />
      <stop offset="1" stop-color="#0EA5E9" />
    </linearGradient>
    <linearGradient id="bag" x1="17" y1="23" x2="47" y2="47" gradientUnits="userSpaceOnUse">
      <stop stop-color="#FFFFFF" stop-opacity="0.96" />
      <stop offset="1" stop-color="#DBEAFE" />
    </linearGradient>
  </defs>

  <rect x="4" y="4" width="56" height="56" rx="16" fill="url(#bg)" />

  <circle cx="47" cy="18" r="6" fill="#FDE047" />

  <path
    d="M23 24C23 20.6863 25.6863 18 29 18H35C38.3137 18 41 20.6863 41 24V27H23V24Z"
    fill="#BFDBFE"
  />

  <rect x="16" y="26" width="32" height="24" rx="8" fill="url(#bag)" />

  <rect x="23" y="33" width="18" height="3.5" rx="1.75" fill="#1D4ED8" fill-opacity="0.8" />

  <rect x="30.5" y="26" width="3" height="24" fill="#93C5FD" fill-opacity="0.9" />

  <path
    d="M14 46C14 43.7909 15.7909 42 18 42H23C25.2091 42 27 43.7909 27 46V46.5H14V46Z"
    fill="#E0F2FE"
    fill-opacity="0.95"
  />
</svg>
